<svg xmlns="http://www.w3.org/2000/svg" style="display:none">

  <!-- ── Tanks ─────────────────────────────────────────────────────── -->

  <!-- PLD — shield with inner cross -->
  <symbol id="job-PLD" viewBox="0 0 20 20" fill="none">
    <path d="M10 2L17 4.8V11c0 4-3 6.2-7 7.5C6 17.2 3 15 3 11V4.8Z"
          stroke="currentColor" stroke-width="1.5" stroke-linejoin="round"/>
    <path d="M10 7.5V13M7 10h6" stroke="currentColor" stroke-width="1.5" stroke-linecap="round"/>
  </symbol>

  <!-- WAR — great-axe blade -->
  <symbol id="job-WAR" viewBox="0 0 20 20" fill="none">
    <path d="M11 17L8 5" stroke="currentColor" stroke-width="1.5" stroke-linecap="round"/>
    <path d="M8 5C6 3 3 3.5 3 6c0 2 2 3.5 5 3" stroke="currentColor" stroke-width="1.5" stroke-linecap="round" stroke-linejoin="round"/>
    <path d="M8 8c2-0.5 5-0.5 6 1.5s-1 4-4 4" stroke="currentColor" stroke-width="1.5" stroke-linecap="round"/>
    <path d="M9 16l4-1" stroke="currentColor" stroke-width="1.5" stroke-linecap="round"/>
  </symbol>

  <!-- DRK — downward curved greatsword -->
  <symbol id="job-DRK" viewBox="0 0 20 20" fill="none">
    <path d="M13 2.5L7 17" stroke="currentColor" stroke-width="2" stroke-linecap="round"/>
    <path d="M13 2.5c1.5 2 1.5 4.5-1 6" stroke="currentColor" stroke-width="1.5" stroke-linecap="round"/>
    <path d="M8.5 13.5l-3 1" stroke="currentColor" stroke-width="1.5" stroke-linecap="round"/>
    <circle cx="7" cy="17" r="1" fill="currentColor"/>
  </symbol>

  <!-- GNB — gunblade (revolver chamber + blade) -->
  <symbol id="job-GNB" viewBox="0 0 20 20" fill="none">
    <rect x="3" y="8.5" width="7" height="5" rx="1.5" stroke="currentColor" stroke-width="1.5"/>
    <path d="M10 11H16" stroke="currentColor" stroke-width="1.8" stroke-linecap="round"/>
    <path d="M7 8.5V6l2.5-1.5" stroke="currentColor" stroke-width="1.5" stroke-linecap="round" stroke-linejoin="round"/>
    <path d="M5.5 13.5v2" stroke="currentColor" stroke-width="1.5" stroke-linecap="round"/>
    <circle cx="6.5" cy="11" r="1" fill="currentColor"/>
  </symbol>

  <!-- ── Healers ──────────────────────────────────────────────────── -->

  <!-- WHM — six-petal flower / cure blossom -->
  <symbol id="job-WHM" viewBox="0 0 20 20" fill="none">
    <circle cx="10" cy="10" r="2" fill="currentColor"/>
    <ellipse cx="10" cy="5.5" rx="1.5" ry="2.5" fill="currentColor" opacity=".7"/>
    <ellipse cx="10" cy="14.5" rx="1.5" ry="2.5" fill="currentColor" opacity=".7"/>
    <ellipse cx="5.5" cy="10" rx="2.5" ry="1.5" fill="currentColor" opacity=".7"/>
    <ellipse cx="14.5" cy="10" rx="2.5" ry="1.5" fill="currentColor" opacity=".7"/>
    <ellipse cx="7" cy="7" rx="1.5" ry="2.5" transform="rotate(-45 7 7)" fill="currentColor" opacity=".5"/>
    <ellipse cx="13" cy="7" rx="1.5" ry="2.5" transform="rotate(45 13 7)" fill="currentColor" opacity=".5"/>
    <ellipse cx="7" cy="13" rx="1.5" ry="2.5" transform="rotate(45 7 13)" fill="currentColor" opacity=".5"/>
    <ellipse cx="13" cy="13" rx="1.5" ry="2.5" transform="rotate(-45 13 13)" fill="currentColor" opacity=".5"/>
  </symbol>

  <!-- SCH — open tome / book -->
  <symbol id="job-SCH" viewBox="0 0 20 20" fill="none">
    <path d="M10 5v11" stroke="currentColor" stroke-width="1.3"/>
    <path d="M10 5C8 4 4 4.5 3 6v9c1-1.5 5-1.5 7 0Z" stroke="currentColor" stroke-width="1.4" stroke-linejoin="round"/>
    <path d="M10 5c2-1 6-.5 7 1v9c-1-1.5-5-1.5-7 0Z" stroke="currentColor" stroke-width="1.4" stroke-linejoin="round"/>
    <path d="M6 8h2M6 10.5h2M6 13h2" stroke="currentColor" stroke-width="1" stroke-linecap="round" opacity=".6"/>
    <path d="M12 8h2M12 10.5h2M12 13h2" stroke="currentColor" stroke-width="1" stroke-linecap="round" opacity=".6"/>
  </symbol>

  <!-- AST — celestial globe / star -->
  <symbol id="job-AST" viewBox="0 0 20 20" fill="none">
    <circle cx="10" cy="10" r="6.5" stroke="currentColor" stroke-width="1.5"/>
    <ellipse cx="10" cy="10" rx="3" ry="6.5" stroke="currentColor" stroke-width="1.2"/>
    <path d="M3.5 10h13" stroke="currentColor" stroke-width="1.2" stroke-linecap="round"/>
    <circle cx="10" cy="10" r="1.5" fill="currentColor"/>
  </symbol>

  <!-- SGE — geometric sage frame -->
  <symbol id="job-SGE" viewBox="0 0 20 20" fill="none">
    <path d="M10 2L17 7.5V13L10 18L3 13V7.5Z" stroke="currentColor" stroke-width="1.5" stroke-linejoin="round"/>
    <path d="M10 6L14 9V12L10 15L6 12V9Z" stroke="currentColor" stroke-width="1.2" stroke-linejoin="round" opacity=".6"/>
    <circle cx="10" cy="10.5" r="1.5" fill="currentColor"/>
  </symbol>

  <!-- ── Melee DPS ──────────────────────────────────────────────── -->

  <!-- MNK — clenched fist / knuckles -->
  <symbol id="job-MNK" viewBox="0 0 20 20" fill="none">
    <rect x="4" y="8" width="12" height="7" rx="3" stroke="currentColor" stroke-width="1.5"/>
    <path d="M7 8V6a1 1 0 012 0v2" stroke="currentColor" stroke-width="1.3"/>
    <path d="M10 8V5.5a1 1 0 012 0V8" stroke="currentColor" stroke-width="1.3"/>
    <path d="M13 8V6a1 1 0 012 0v2" stroke="currentColor" stroke-width="1.3"/>
    <path d="M4 12.5c-1.5 0-2-1-2-2.5" stroke="currentColor" stroke-width="1.3" stroke-linecap="round"/>
  </symbol>

  <!-- DRG — lance spear tip -->
  <symbol id="job-DRG" viewBox="0 0 20 20" fill="none">
    <path d="M10 2L14 9H10H6Z" stroke="currentColor" stroke-width="1.4" stroke-linejoin="round" fill="currentColor" opacity=".2"/>
    <path d="M10 2L14 9H10H6Z" stroke="currentColor" stroke-width="1.4" stroke-linejoin="round"/>
    <path d="M10 9v9" stroke="currentColor" stroke-width="1.5" stroke-linecap="round"/>
    <path d="M7.5 7.5l-3 3M12.5 7.5l3 3" stroke="currentColor" stroke-width="1.2" stroke-linecap="round" opacity=".5"/>
  </symbol>

  <!-- NIN — four-pointed shuriken -->
  <symbol id="job-NIN" viewBox="0 0 20 20" fill="none">
    <path d="M10 2L12.5 8.5L19 10L12.5 11.5L10 18L7.5 11.5L1 10L7.5 8.5Z"
          stroke="currentColor" stroke-width="1.4" stroke-linejoin="round" fill="currentColor" opacity=".15"/>
    <path d="M10 2L12.5 8.5L19 10L12.5 11.5L10 18L7.5 11.5L1 10L7.5 8.5Z"
          stroke="currentColor" stroke-width="1.4" stroke-linejoin="round"/>
    <circle cx="10" cy="10" r="1.5" fill="currentColor"/>
  </symbol>

  <!-- SAM — katana blade (diagonal with guard) -->
  <symbol id="job-SAM" viewBox="0 0 20 20" fill="none">
    <path d="M15.5 3.5L4.5 16.5" stroke="currentColor" stroke-width="2" stroke-linecap="round"/>
    <path d="M12.5 5l2-2.5L17 4l-2 2.5" stroke="currentColor" stroke-width="1.3" stroke-linejoin="round"/>
    <path d="M7.5 12.5l-4 4" stroke="currentColor" stroke-width="1.5" stroke-linecap="round" opacity=".5"/>
    <path d="M9 9L11 7" stroke="currentColor" stroke-width="1.2" stroke-linecap="round" opacity=".6"/>
  </symbol>

  <!-- RPR — scythe -->
  <symbol id="job-RPR" viewBox="0 0 20 20" fill="none">
    <path d="M5 17L14 4" stroke="currentColor" stroke-width="1.5" stroke-linecap="round"/>
    <path d="M14 4C16 3 18 4.5 17 7.5C16 10 13 11 10 9.5" stroke="currentColor" stroke-width="1.5" stroke-linecap="round"/>
    <path d="M5 17l3-1" stroke="currentColor" stroke-width="1.5" stroke-linecap="round"/>
  </symbol>

  <!-- VPR — twin serpent fangs / crossed blades -->
  <symbol id="job-VPR" viewBox="0 0 20 20" fill="none">
    <path d="M6 3L10 10L8 17" stroke="currentColor" stroke-width="1.5" stroke-linecap="round" stroke-linejoin="round"/>
    <path d="M14 3L10 10L12 17" stroke="currentColor" stroke-width="1.5" stroke-linecap="round" stroke-linejoin="round"/>
    <path d="M6 3C5 5 7 6.5 10 10" stroke="currentColor" stroke-width="1" stroke-linecap="round" opacity=".5"/>
    <path d="M14 3C15 5 13 6.5 10 10" stroke="currentColor" stroke-width="1" stroke-linecap="round" opacity=".5"/>
    <circle cx="10" cy="10" r="1.2" fill="currentColor"/>
  </symbol>

  <!-- ── Physical Ranged ────────────────────────────────────────── -->

  <!-- BRD — bow and arrow -->
  <symbol id="job-BRD" viewBox="0 0 20 20" fill="none">
    <path d="M5 3C5 3 7 6 7 10C7 14 5 17 5 17" stroke="currentColor" stroke-width="1.5" stroke-linecap="round"/>
    <path d="M5 3l2 1M5 17l2-1" stroke="currentColor" stroke-width="1.5" stroke-linecap="round"/>
    <path d="M7 4L7 16" stroke="currentColor" stroke-width="1" stroke-dasharray="1 0" opacity=".4"/>
    <path d="M7 10h8" stroke="currentColor" stroke-width="1.5" stroke-linecap="round"/>
    <path d="M12 7.5L15 10L12 12.5" stroke="currentColor" stroke-width="1.5" stroke-linecap="round" stroke-linejoin="round"/>
  </symbol>

  <!-- MCH — gear / cog (machinist) -->
  <symbol id="job-MCH" viewBox="0 0 20 20" fill="none">
    <circle cx="10" cy="10" r="3" stroke="currentColor" stroke-width="1.5"/>
    <path d="M10 2.5V4.5M10 15.5V17.5M2.5 10H4.5M15.5 10H17.5M4.7 4.7l1.4 1.4M13.9 13.9l1.4 1.4M4.7 15.3l1.4-1.4M13.9 6.1l1.4-1.4"
          stroke="currentColor" stroke-width="1.8" stroke-linecap="round"/>
  </symbol>

  <!-- DNC — two chakrams / rings -->
  <symbol id="job-DNC" viewBox="0 0 20 20" fill="none">
    <circle cx="7" cy="8" r="4" stroke="currentColor" stroke-width="1.5"/>
    <circle cx="7" cy="8" r="1.5" fill="currentColor"/>
    <circle cx="13" cy="12" r="4" stroke="currentColor" stroke-width="1.5"/>
    <circle cx="13" cy="12" r="1.5" fill="currentColor"/>
  </symbol>

  <!-- ── Magical Ranged ─────────────────────────────────────────── -->

  <!-- BLM — astral/umbral crystal with points -->
  <symbol id="job-BLM" viewBox="0 0 20 20" fill="none">
    <path d="M10 2L12.5 7.5L18 8L13.5 12.5L15 18L10 15L5 18L6.5 12.5L2 8L7.5 7.5Z"
          stroke="currentColor" stroke-width="1.4" stroke-linejoin="round" fill="currentColor" opacity=".15"/>
    <path d="M10 2L12.5 7.5L18 8L13.5 12.5L15 18L10 15L5 18L6.5 12.5L2 8L7.5 7.5Z"
          stroke="currentColor" stroke-width="1.4" stroke-linejoin="round"/>
    <circle cx="10" cy="10" r="2" fill="currentColor"/>
  </symbol>

  <!-- SMN — demi-bahamut wing / summoner eye -->
  <symbol id="job-SMN" viewBox="0 0 20 20" fill="none">
    <path d="M10 4C6 4 3 8 3 10s3 6 7 6 7-4 7-6-3-6-7-6z" stroke="currentColor" stroke-width="1.5"/>
    <circle cx="10" cy="10" r="2.5" stroke="currentColor" stroke-width="1.3"/>
    <circle cx="10" cy="10" r="1" fill="currentColor"/>
    <path d="M3 10C2 7 3 4 5.5 3M17 10c1-3 0-6-2.5-7" stroke="currentColor" stroke-width="1.2" stroke-linecap="round" opacity=".5"/>
  </symbol>

  <!-- RDM — rapier with magic orb on guard -->
  <symbol id="job-RDM" viewBox="0 0 20 20" fill="none">
    <path d="M10 3V15" stroke="currentColor" stroke-width="1.8" stroke-linecap="round"/>
    <path d="M6.5 9h7" stroke="currentColor" stroke-width="1.5" stroke-linecap="round"/>
    <circle cx="10" cy="7" r="2" stroke="currentColor" stroke-width="1.4"/>
    <circle cx="10" cy="7" r="0.8" fill="currentColor"/>
    <path d="M9 15l1 2.5 1-2.5" stroke="currentColor" stroke-width="1.3" stroke-linecap="round" stroke-linejoin="round"/>
  </symbol>

  <!-- PCT — painter's brush + palette dot -->
  <symbol id="job-PCT" viewBox="0 0 20 20" fill="none">
    <path d="M14 3L6 12" stroke="currentColor" stroke-width="1.5" stroke-linecap="round"/>
    <path d="M14 3l2 2-8 9" stroke="currentColor" stroke-width="1.5" stroke-linejoin="round" stroke-linecap="round"/>
    <path d="M6 12c-1 1-2.5 1.5-3.5 1 0 1.5 1 2.5 2 2.5 1.5 0 2.5-1.5 2-3z" stroke="currentColor" stroke-width="1.3" stroke-linejoin="round"/>
    <circle cx="15" cy="15" r="2" stroke="currentColor" stroke-width="1.3"/>
    <circle cx="15" cy="15" r="0.7" fill="currentColor"/>
  </symbol>

</svg>
